<?xml version="1.0" encoding="utf-8"?>
<!-- Generator: Adobe Illustrator 21.0.0, SVG Export Plug-In . SVG Version: 6.00 Build 0)  -->
<svg version="1.1" id="Layer_1" xmlns="http://www.w3.org/2000/svg" xmlns:xlink="http://www.w3.org/1999/xlink" x="0px" y="0px"
	 viewBox="0 0 159.4 65.6" style="enable-background:new 0 0 159.4 65.6;" xml:space="preserve">
<style type="text/css">
	.st0{fill-rule:evenodd;clip-rule:evenodd;fill:#FFFFFF;}
</style>
<g>
	<path class="st0" d="M53.1,40.8c-0.4,1.2-1.2,2.1-2,3C51,43.9,50.8,44,50.7,44c-0.5,0-0.8,0.2-0.6,0.8c0.1,0.2-0.1,0.4-0.3,0.4
		c-0.5,0-0.6,0.3-0.8,0.7c-0.4,0.6-0.8,1.2-1.3,1.8c-0.1,0.2-0.3,0.3-0.5,0.4c-0.2,0-0.4,0.1-0.5-0.2c0-0.5-0.4-0.7-0.9-0.6
		c-1.4,0.1-1.7,2.3-6.1,2.9c0,0.6-0.4,0.9-0.6,1c-2.5,1-3.5,1.3-6.2,0.4c-1-0.4-1.8,0.4-3.3,0.1c-1.2-0.2-1.7,0.3-2.8-0.4
		c-0.6-0.4-1.4-0.6-2.2-0.8c-1.1-0.3-0.8-1.1-3.1-1.1c-0.1,0-0.3-0.1-0.3-0.2c-0.4-0.6-1.2-0.8-1.5-1.4c-0.1-0.1-0.3-0.3-0.4-0.3
		c-0.8-0.4-1.4-1.2-1.9-1.9c-0.1-0.1-0.1-0.2-0.2-0.2c-0.4-0.1-0.5-0.4-0.5-0.7c0-0.2-0.1-0.4-0.2-0.5c-0.7-0.3-0.9-0.9-1.1-1.5
		c-0.2-0.5-0.4-0.9-0.7-1.3c-0.7-0.7-0.4-1.7-0.5-2.7c-0.1-0.8-0.9-1.5-1.1-2.3c-0.2-1,0.2-1,0.3-2c0.1-1.4-0.2-1.9-0.2-2.2
		c0-0.6-0.1-1.1,0.1-1.7c0.1-0.4,0.3-0.9,0.2-1.4c0-0.3,0-0.5,0.2-0.8c0.4-0.6,0.1-1,0.1-1c0,0,0.8-0.5,0.7-2.4
		c0-1.1,1.4-1.9,1.5-2.9c0.2-1.7,2.1-2.6,2.2-3.5c0.1-2.2,2.5-1.4,2.5-2.4c0.4-0.8,0.8-0.2,1.3-0.6c0.7-0.5,1.1-1.9,1.6-2.3
		c0.5-0.5,0.5,0.2,1.1-0.3c0.8-0.6,1.6-1.1,2.6-1.1c0.6,0,1.4-0.3,1.5-0.6c0.2-0.8,2.8-0.7,3.7-0.7c0.5,0,1.4,0.3,1.9-0.1
		c0.5-0.4,0.9,0.1,1.3-0.3c0.3-0.2,2.3,0.1,2.8,0.3c9.9,2.6,17.2,11.7,17.2,22.4c0,0.9,0,1.8-0.2,2.7c-0.3,1.8-0.9,1.7-1.5,3.9
		C54.3,40.2,53.2,40.5,53.1,40.8L53.1,40.8z M32.5,9.2c-13,0-23.6,10.6-23.6,23.6c0,13,10.6,23.6,23.6,23.6
		c13,0,23.6-10.6,23.6-23.6C56.1,19.8,45.5,9.2,32.5,9.2L32.5,9.2z"/>
	<path class="st0" d="M33,37.2l-5.6-5.6L33,26l5.6,5.6L33,37.2L33,37.2z M47.3,24l-0.5-0.5l-6.5,6.5l-5.6-5.6l6.5-6.5l-1.7-1.7
		l-7.7,7.7l-6.5-6.5l-0.5,0.5l6.5,6.5l-5.6,5.6l-6.5-6.5l-1.7,1.7l7.7,7.7l-6.5,6.5l0.5,0.5l6.5-6.5l5.6,5.6l-6.5,6.5l1.7,1.7
		l7.7-7.7l6.2,6.2l0.5-0.5l-6.2-6.2l5.5-5.5l6.5,6.5l1.7-1.7l-7.7-7.7L47.3,24L47.3,24z"/>
	<polygon class="st0" points="63.2,17.3 63.9,17.3 63.9,22.6 67.2,22.6 67.2,23.2 63.2,23.2 63.2,17.3 	"/>
	<path class="st0" d="M73.2,21.1l-1.3-3l-1.3,3H73.2L73.2,21.1z M71.5,17.3h0.6l2.7,5.9h-0.7l-0.7-1.6h-3.2l-0.7,1.6h-0.7L71.5,17.3
		L71.5,17.3z"/>
	<polygon class="st0" points="78.5,17.9 76.5,17.9 76.5,17.3 81.1,17.3 81.1,17.9 79.1,17.9 79.1,23.2 78.5,23.2 78.5,17.9 	"/>
	<polygon class="st0" points="82.7,17.3 83.5,17.3 85.6,22.4 87.7,17.3 88.4,17.3 85.9,23.3 85.3,23.3 82.7,17.3 	"/>
	<polygon class="st0" points="90.5,17.3 91.2,17.3 91.2,23.2 90.5,23.2 90.5,17.3 	"/>
	<path class="st0" d="M93.2,22.3l0.5-0.4c0.4,0.5,0.7,0.8,1.3,0.8c0.7,0,1.2-0.5,1.2-1.4l0-3.9h0.7v3.9c0,0.7-0.2,1.2-0.5,1.5
		c-0.3,0.3-0.8,0.5-1.3,0.5C94.2,23.3,93.6,22.9,93.2,22.3L93.2,22.3z"/>
	<path class="st0" d="M103.2,21.1l-1.3-3l-1.3,3H103.2L103.2,21.1z M101.5,17.3h0.6l2.7,5.9h-0.7l-0.7-1.6h-3.2l-0.7,1.6h-0.7
		L101.5,17.3L101.5,17.3z"/>
	<path class="st0" d="M106.5,22.4l0.4-0.5c0.6,0.6,1.2,0.8,2,0.8c0.8,0,1.3-0.4,1.3-1l0,0c0-0.5-0.3-0.9-1.5-1.1
		c-1.4-0.3-2-0.7-2-1.7l0,0c0-0.9,0.8-1.6,1.9-1.6c0.9,0,1.5,0.2,2.1,0.7l-0.4,0.5c-0.5-0.4-1.1-0.6-1.7-0.6c-0.8,0-1.3,0.4-1.3,0.9
		l0,0c0,0.6,0.3,0.9,1.6,1.1c1.3,0.3,1.9,0.8,1.9,1.7l0,0c0,1-0.8,1.7-2,1.7C108,23.3,107.2,23,106.5,22.4L106.5,22.4z"/>
	<path class="st0" d="M84.1,33.6l0.4-0.5c0.6,0.6,1.2,0.8,2,0.8c0.8,0,1.3-0.4,1.3-1v0c0-0.5-0.3-0.9-1.5-1.1c-1.4-0.3-2-0.7-2-1.7
		l0,0c0-0.9,0.8-1.6,1.9-1.6c0.9,0,1.5,0.2,2.1,0.7L88,29.7c-0.5-0.4-1.1-0.6-1.7-0.6c-0.8,0-1.3,0.4-1.3,0.9v0
		c0,0.6,0.3,0.9,1.6,1.1c1.3,0.3,1.9,0.8,1.9,1.7l0,0c0,1-0.8,1.7-2,1.7C85.6,34.5,84.8,34.2,84.1,33.6L84.1,33.6z"/>
	<polygon class="st0" points="117.3,17.3 117.9,17.3 117.9,22.6 121.3,22.6 121.3,23.2 117.3,23.2 117.3,17.3 	"/>
	<path class="st0" d="M127.2,21.1l-1.3-3l-1.3,3H127.2L127.2,21.1z M125.6,17.3h0.6l2.7,5.9h-0.7l-0.7-1.6h-3.2l-0.7,1.6h-0.7
		L125.6,17.3L125.6,17.3z"/>
	<path class="st0" d="M130.8,20.8v-3.4h0.7v3.4c0,1.3,0.7,2,1.8,2c1.1,0,1.8-0.7,1.8-1.9v-3.4h0.7v3.4c0,1.7-1,2.6-2.5,2.6
		C131.8,23.3,130.8,22.4,130.8,20.8L130.8,20.8z"/>
	<polygon class="st0" points="138.2,17.3 138.9,17.3 138.9,20.8 142.3,17.3 143.1,17.3 140.6,19.9 143.2,23.2 142.4,23.2 
		140.1,20.4 138.9,21.6 138.9,23.2 138.2,23.2 138.2,17.3 	"/>
	<path class="st0" d="M145.1,20.8v-3.4h0.7v3.4c0,1.3,0.7,2,1.8,2c1.1,0,1.8-0.7,1.8-1.9l0-3.4h0.7v3.4c0,1.7-1,2.6-2.5,2.6
		C146.1,23.3,145.1,22.4,145.1,20.8L145.1,20.8z"/>
	<polygon class="st0" points="63.2,28.5 63.9,28.5 63.9,32.1 67.2,28.5 68.1,28.5 65.6,31.1 68.2,34.4 67.4,34.4 65.1,31.6 
		63.9,32.9 63.9,34.4 63.2,34.4 63.2,28.5 	"/>
	<path class="st0" d="M74.5,31.5L74.5,31.5c0-1.4-1-2.4-2.3-2.4c-1.3,0-2.3,1.1-2.3,2.4l0,0c0,1.3,1,2.4,2.3,2.4
		C73.6,33.9,74.5,32.8,74.5,31.5L74.5,31.5z M69.2,31.5L69.2,31.5c0-1.6,1.2-3.1,3-3.1c1.8,0,3,1.4,3,3l0,0c0,1.6-1.2,3-3,3
		C70.4,34.5,69.2,33.1,69.2,31.5L69.2,31.5z"/>
	<polygon class="st0" points="77.1,28.5 77.7,28.5 81.4,33.3 81.4,28.5 82.1,28.5 82.1,34.4 81.6,34.4 77.8,29.6 77.8,34.4 
		77.1,34.4 77.1,28.5 	"/>
	<path class="st0" d="M90.1,32v-3.4h0.7v3.4c0,1.3,0.7,2,1.8,2c1.1,0,1.8-0.7,1.8-1.9v-3.4H95v3.4c0,1.7-1,2.6-2.5,2.6
		C91.1,34.5,90.1,33.6,90.1,32L90.1,32z"/>
	<polygon class="st0" points="97.7,28.5 98.3,28.5 98.3,33.8 101.7,33.8 101.7,34.4 97.7,34.4 97.7,28.5 	"/>
	<polygon class="st0" points="103.8,29.2 101.8,29.2 101.8,28.5 106.4,28.5 106.4,29.2 104.4,29.2 104.4,34.4 103.8,34.4 
		103.8,29.2 	"/>
	<path class="st0" d="M111.7,32.3l-1.3-3l-1.3,3H111.7L111.7,32.3z M109,27.2h2.8v0.5H109V27.2L109,27.2z M110.1,28.5h0.6l2.7,5.9
		h-0.7l-0.7-1.6h-3.2l-0.7,1.6h-0.7L110.1,28.5L110.1,28.5z"/>
	<path class="st0" d="M114.5,31.5L114.5,31.5c0-1.7,1.2-3.1,3-3.1c1.1,0,1.7,0.4,2.3,0.9l-0.5,0.5c-0.5-0.5-1.1-0.8-1.9-0.8
		c-1.3,0-2.3,1.1-2.3,2.4v0c0,1.4,1,2.4,2.3,2.4c0.8,0,1.3-0.3,1.9-0.9l0.4,0.4c-0.6,0.6-1.3,1-2.4,1
		C115.7,34.5,114.5,33.2,114.5,31.5L114.5,31.5z"/>
	<polygon class="st0" points="121.3,28.5 121.9,28.5 121.9,34.4 121.3,34.4 121.3,28.5 	"/>
	<path class="st0" d="M123.3,33.5l0.5-0.4c0.4,0.5,0.7,0.8,1.3,0.8c0.7,0,1.2-0.5,1.2-1.4v-3.9h0.7v3.9c0,0.7-0.2,1.2-0.5,1.5
		c-0.3,0.3-0.8,0.5-1.3,0.5C124.2,34.5,123.7,34.1,123.3,33.5L123.3,33.5z"/>
	<path class="st0" d="M128.7,32v-3.4h0.7v3.4c0,1.3,0.7,2,1.8,2c1.1,0,1.8-0.7,1.8-1.9l0-3.4h0.7v3.4c0,1.7-1,2.6-2.5,2.6
		C129.6,34.5,128.7,33.6,128.7,32L128.7,32z"/>
	<path class="st0" d="M138.3,32v-3.4h0.7v3.4c0,1.3,0.7,2,1.8,2c1.1,0,1.8-0.7,1.8-1.9l0-3.4h0.7v3.4c0,1.7-1,2.6-2.5,2.6
		C139.3,34.5,138.3,33.6,138.3,32L138.3,32z"/>
	<polygon class="st0" points="145,28.5 145.6,28.5 149.3,33.3 149.3,28.5 150,28.5 150,34.4 149.4,34.4 145.6,29.6 145.6,34.4 
		145,34.4 145,28.5 	"/>
	<polygon class="st0" points="63.2,39.8 63.9,39.8 63.9,45.7 63.2,45.7 63.2,39.8 	"/>
	<polygon class="st0" points="65.5,45.2 69.3,40.4 65.6,40.4 65.6,39.8 70.2,39.8 70.2,40.2 66.4,45.1 70.2,45.1 70.2,45.7 
		65.5,45.7 65.5,45.2 	"/>
	<path class="st0" d="M71.5,42.7L71.5,42.7c0-1.6,1.2-3.1,3-3.1c1,0,1.6,0.3,2.2,0.8L76.2,41c-0.5-0.4-1-0.7-1.8-0.7
		c-1.3,0-2.2,1.1-2.2,2.4l0,0c0,1.4,0.9,2.4,2.3,2.4c0.7,0,1.3-0.3,1.7-0.6l0-1.5h-1.8v-0.6h2.4v2.3c-0.5,0.5-1.4,0.9-2.4,0.9
		C72.6,45.8,71.5,44.4,71.5,42.7L71.5,42.7z"/>
	<polygon class="st0" points="78.5,39.8 79.1,39.8 79.1,45 82.5,45 82.5,45.7 78.5,45.7 78.5,39.8 	"/>
	<path class="st0" d="M83.9,39.8h0.7v5.9h-0.7V39.8L83.9,39.8z M82.8,38.5h2.8v0.5h-2.8V38.5L82.8,38.5z"/>
	<polygon class="st0" points="88,40.4 86,40.4 86,39.8 90.6,39.8 90.6,40.4 88.6,40.4 88.6,45.7 88,45.7 88,40.4 	"/>
	<path class="st0" d="M92.1,39.8h0.7v5.9h-0.7V39.8L92.1,39.8z M91,38.5h2.8v0.5H91V38.5L91,38.5z"/>
	<path class="st0" d="M97.2,45.1c0.9,0,1.4-0.4,1.4-1.1l0,0c0-0.6-0.5-1-1.6-1h-1.9v2.1H97.2L97.2,45.1z M97,42.4
		c0.8,0,1.4-0.4,1.4-1.1l0,0c0-0.6-0.5-1-1.3-1h-1.8v2H97L97,42.4z M94.6,39.8h2.5c0.7,0,1.2,0.2,1.5,0.5c0.2,0.3,0.4,0.6,0.4,0.9
		l0,0c0,0.8-0.5,1.2-0.9,1.4c0.7,0.2,1.3,0.6,1.3,1.4l0,0c0,1-0.9,1.6-2.1,1.6h-2.6V39.8L94.6,39.8z"/>
	<path class="st0" d="M104.6,43.5l-1.3-3l-1.3,3H104.6L104.6,43.5z M103,39.7h0.6l2.7,5.9h-0.7l-0.7-1.6h-3.2l-0.7,1.6h-0.7
		L103,39.7L103,39.7z"/>
	<path class="st0" d="M107.2,44.8l0.4-0.5c0.6,0.6,1.2,0.8,2,0.8c0.8,0,1.3-0.4,1.3-1v0c0-0.5-0.3-0.9-1.5-1.1c-1.4-0.3-2-0.7-2-1.7
		l0,0c0-0.9,0.8-1.6,1.9-1.6c0.9,0,1.5,0.2,2.1,0.7l-0.4,0.5c-0.5-0.4-1.1-0.6-1.7-0.6c-0.8,0-1.3,0.4-1.3,1v0
		c0,0.6,0.3,0.9,1.6,1.1c1.3,0.3,1.9,0.8,1.9,1.7l0,0c0,1-0.8,1.7-2,1.7C108.7,45.7,107.9,45.4,107.2,44.8L107.2,44.8z"/>
	<path class="st0" d="M115.5,42.7L115.5,42.7c0-1.7,1.2-3.1,3-3.1c1.1,0,1.7,0.4,2.3,0.9l-0.5,0.5c-0.5-0.5-1.1-0.8-1.9-0.8
		c-1.3,0-2.3,1.1-2.3,2.4l0,0c0,1.4,1,2.4,2.3,2.4c0.8,0,1.3-0.3,1.9-0.8l0.4,0.4c-0.6,0.6-1.3,1-2.4,1
		C116.8,45.8,115.5,44.4,115.5,42.7L115.5,42.7z"/>
	<polygon class="st0" points="122.2,39.8 126.4,39.8 126.4,40.4 122.8,40.4 122.8,42.4 126,42.4 126,43 122.8,43 122.8,45 126.5,45 
		126.5,45.7 122.2,45.7 122.2,39.8 	"/>
	<polygon class="st0" points="127.9,39.8 128.6,39.8 132.3,44.5 132.3,39.8 132.9,39.8 132.9,45.7 132.4,45.7 128.6,40.8 
		128.6,45.7 127.9,45.7 127.9,39.8 	"/>
	<polygon class="st0" points="136.3,40.4 134.3,40.4 134.3,39.8 138.9,39.8 138.9,40.4 137,40.4 137,45.7 136.3,45.7 136.3,40.4 	
		"/>
	<path class="st0" d="M142.8,42.8c0.9,0,1.5-0.5,1.5-1.2v0c0-0.7-0.6-1.2-1.5-1.2H141v2.4H142.8L142.8,42.8z M140.3,39.8h2.5
		c0.7,0,1.3,0.2,1.7,0.6c0.3,0.3,0.5,0.7,0.5,1.2v0c0,1-0.7,1.5-1.6,1.7l1.8,2.4h-0.8l-1.7-2.3H141v2.3h-0.7V39.8L140.3,39.8z"/>
	<path class="st0" d="M146.2,44.8l0.4-0.5c0.6,0.6,1.2,0.8,2,0.8c0.8,0,1.3-0.4,1.3-1l0,0c0-0.5-0.3-0.9-1.5-1.1
		c-1.4-0.3-2-0.7-2-1.7v0c0-0.9,0.8-1.6,1.9-1.6c0.9,0,1.5,0.2,2.1,0.7l-0.4,0.5c-0.5-0.4-1.1-0.6-1.7-0.6c-0.8,0-1.3,0.4-1.3,1l0,0
		c0,0.6,0.3,0.9,1.6,1.1c1.3,0.3,1.9,0.8,1.9,1.7l0,0c0,1-0.8,1.7-2,1.7C147.6,45.7,146.9,45.4,146.2,44.8L146.2,44.8z"/>
</g>
</svg>
